{"title":"22 Female Kottayam (2012) Malayalam Movie DVDRip x264 AAC - Excl","uid":7434592,"size":946454314,"categoryP":"video","categoryS":"movies","magnet":"?xt=urn:btih:d22c944555ba7de841cd0f0364e7761db3141c51&amp;dn=22+Female+Kottayam+%282012%29+Malayalam+Movie+DVDRip+x264+AAC+-+Excl&amp;tr=udp%3A%2F%2Ftracker.openbittorrent.com%3A80&amp;tr=udp%3A%2F%2Fopen.demonii.com%3A1337&amp;tr=udp%3A%2F%2Ftracker.coppersurfer.tk%3A6969&amp;tr=udp%3A%2F%2Fexodus.desync.com%3A6969","seeders":1,"leechers":1,"uploader":"tykoon123","files":-1,"time":1342035241,"description":"Poster: &lt;a href=&quot;\nhttp://imgh.us/308469_178122758940397_122523821166958_382140_319780754_n.jpg&quot; rel=&quot;nofollow&quot; target=&quot;_NEW&quot;&gt;\nhttp://imgh.us/308469_178122758940397_122523821166958_382140_319780754_n.jpg&lt;/a&gt;\n\nInfo:\nFormat : MPEG-4\nFormat profile : Base Media\nCodec ID : isom\nFile size : 896 MiB\nDuration : 2h 3mn\nOverall bit rate mode : Variable\nOverall bit rate : 1 018 Kbps\nMovie name : DVD DVD-\nGenre : MyDVD\nWriting application : DigiArty AV Encoder Core\n\nVideo\nID : 1\nFormat : AVC\nFormat/Info : Advanced Video Codec\nFormat profile : &lt;a class=&quot;__cf_email__&quot; href=&quot;/cdn-cgi/l/email-protection&quot; data-cfemail=&quot;3577544650595c5b507579061b05&quot;&gt;[email&amp;#160;protected]&lt;/a&gt;&lt;script cf-hash='f9e31' type=&quot;text/javascript&quot;&gt;\n/* &lt;![CDATA[ */!function(){try{var t=&quot;currentScript&quot;in document?document.currentScript:function(){for(var t=document.getElementsByTagName(&quot;script&quot;),e=t.length;e--;)if(t[e].getAttribute(&quot;cf-hash&quot;))return t[e]}();if(t&amp;&amp;t.previousSibling){var e,r,n,i,c=t.previousSibling,a=c.getAttribute(&quot;data-cfemail&quot;);if(a){for(e=&quot;&quot;,r=parseInt(a.substr(0,2),16),n=2;a.length-n;n+=2)i=parseInt(a.substr(n,2),16)^r,e+=String.fromCharCode(i);e=document.createTextNode(e),c.parentNode.replaceChild(e,c)}}}catch(u){}}();/* ]]&gt; */&lt;/script&gt;\nFormat settings, CABAC : No\nFormat settings, ReFrames : 6 frames\nCodec ID : avc1\nCodec ID/Info : Advanced Video Coding\nDuration : 2h 3mn\nBit rate : 719 Kbps\nWidth : 720 pixels\nHeight : 404 pixels\nDisplay aspect ratio : 16:9\nFrame rate mode : Constant\nFrame rate : 23.976 fps\nColor space : YUV\nChroma subsampling : 4:2:0\nBit depth : 8 bits\nScan type : Progressive\nBits/(Pixel*Frame) : 0.103\nStream size : 633 MiB (71%)\n\nAudio\nID : 2\nFormat : AAC\nFormat/Info : Advanced Audio Codec\nFormat profile : LC\nCodec ID : 40\nDuration : 2h 3mn\nBit rate mode : Variable\nBit rate : 294 Kbps\nChannel(s) : 6 channels\nChannel positions : Front: L C R, Side: L R, LFE\nSampling rate : 48.0 KHz\nCompression mode : Lossy\nStream size : 259 MiB (29%)\n\n\nSCREENS: &lt;a href=&quot;\nhttp://imgh.us/photo-75030.jpg&quot; rel=&quot;nofollow&quot; target=&quot;_NEW&quot;&gt;\nhttp://imgh.us/photo-75030.jpg&lt;/a&gt; &lt;a href=&quot;\nhttp://imgh.us/photo-75036.jpg&quot; rel=&quot;nofollow&quot; target=&quot;_NEW&quot;&gt;\nhttp://imgh.us/photo-75036.jpg&lt;/a&gt; &lt;a href=&quot;\nhttp://imgh.us/photo-75032.jpg&quot; rel=&quot;nofollow&quot; target=&quot;_NEW&quot;&gt;\nhttp://imgh.us/photo-75032.jpg&lt;/a&gt; &lt;a href=&quot;\nhttp://imgh.us/photo-75033.jpg&quot; rel=&quot;nofollow&quot; target=&quot;_NEW&quot;&gt;\nhttp://imgh.us/photo-75033.jpg&lt;/a&gt; &lt;a href=&quot;\nhttp://imgh.us/photo-75035.jpg&quot; rel=&quot;nofollow&quot; target=&quot;_NEW&quot;&gt;\nhttp://imgh.us/photo-75035.jpg&lt;/a&gt;","torrent":{"xt":"urn:btih:d22c944555ba7de841cd0f0364e7761db3141c51","amp;dn":"22+Female+Kottayam+%282012%29+Malayalam+Movie+DVDRip+x264+AAC+-+Excl","amp;tr":["udp%3A%2F%2Ftracker.openbittorrent.com%3A80","udp%3A%2F%2Fopen.demonii.com%3A1337","udp%3A%2F%2Ftracker.coppersurfer.tk%3A6969","udp%3A%2F%2Fexodus.desync.com%3A6969"],"infoHash":"d22c944555ba7de841cd0f0364e7761db3141c51","infoHashBuffer":{"type":"Buffer","data":[210,44,148,69,85,186,125,232,65,205,15,3,100,231,118,29,179,20,28,81]},"announce":[],"urlList":[]}}